<?xml version="1.0" encoding="iso-8859-1"?>

<!DOCTYPE svg PUBLIC "-//W3C//DTD SVG 1.1//EN" "http://www.w3.org/Graphics/SVG/1.1/DTD/svg11.dtd">
<!-- Uploaded to: SVG Repo, www.svgrepo.com, Generator: SVG Repo Mixer Tools -->
<svg fill="#6366f1" version="1.1" xmlns="http://www.w3.org/2000/svg" xmlns:xlink="http://www.w3.org/1999/xlink" 
	 width="800px" height="800px" viewBox="0 0 31.975 32" xml:space="preserve">
<g id="turntable">
	<path d="M27,4.42v11.04c0,2.313-0.889,4.488-2.525,6.125l-1.41,1.423l0.231,0.232c0.287,0.286,0.287,0.751,0,1.038l-2.865,2.866
		c-0.138,0.138-0.325,0.215-0.52,0.215s-0.382-0.077-0.52-0.215l-0.585-0.586l-1.841,1.841c-0.098,0.098-0.226,0.146-0.354,0.146
		s-0.256-0.049-0.354-0.146c-0.195-0.195-0.195-0.512,0-0.707l1.841-1.841l-0.586-0.585c-0.138-0.138-0.215-0.325-0.215-0.52
		s0.076-0.382,0.214-0.52l2.865-2.866c0.287-0.286,0.751-0.286,1.038,0l0.229,0.232l1.416-1.423C24.318,18.912,25,17.239,25,15.46
		V2.837c0-0.015,0.008-0.028,0.009-0.043C22.44,1.033,19.336,0,15.988,0C7.157,0,0,7.163,0,16s7.157,16,15.988,16
		c8.829,0,15.986-7.163,15.986-16C31.975,11.439,30.059,7.335,27,4.42z M5.813,11.918c-0.151,0.4-0.532,0.646-0.936,0.646
		c-0.118,0-0.237-0.021-0.354-0.064c-0.517-0.195-0.777-0.773-0.582-1.289c1.202-3.18,3.688-5.764,6.821-7.09
		c0.504-0.213,1.095,0.021,1.311,0.531c0.215,0.508-0.022,1.096-0.531,1.311C8.912,7.077,6.823,9.248,5.813,11.918z M15.527,21.256
		c-3.057,0-5.534-2.478-5.534-5.533s2.478-5.533,5.534-5.533c3.055,0,5.532,2.478,5.532,5.533S18.582,21.256,15.527,21.256z"/>
	<path d="M15.509,13.006c-1.382,0-2.503,1.112-2.503,2.482c0,1.369,1.121,2.48,2.503,2.48c1.379,0,2.499-1.111,2.499-2.48
		C18.008,14.118,16.888,13.006,15.509,13.006z"/>
</g>
<g id="Layer_1">
</g>
</svg>