<?xml version="1.0" encoding="iso-8859-1"?>
<!-- Uploaded to: SVG Repo, www.svgrepo.com, Generator: SVG Repo Mixer Tools -->
<svg fill="#6366f1" height="800px" width="800px" version="1.1" id="Layer_1" xmlns="http://www.w3.org/2000/svg" xmlns:xlink="http://www.w3.org/1999/xlink" 
	 viewBox="0 0 512 512" xml:space="preserve">
<g>
	<g>
		<path d="M256,0C114.509,0,0,114.498,0,256c0,141.491,114.498,256,256,256c141.491,0,256-114.498,256-256
			C512,114.509,397.502,0,256,0z M256,478.609c-122.746,0-222.609-99.862-222.609-222.609S133.254,33.391,256,33.391
			S478.609,133.254,478.609,256S378.746,478.609,256,478.609z"/>
	</g>
</g>
<g>
	<g>
		<path d="M389.74,122.26C353.966,86.485,306.469,66.783,256,66.783c-9.22,0-16.696,7.475-16.696,16.696s7.475,16.696,16.696,16.696
			c41.55,0,80.661,16.229,110.129,45.697S411.826,214.45,411.826,256c0,9.22,7.475,16.696,16.696,16.696s16.696-7.475,16.696-16.696
			C445.217,205.531,425.515,158.034,389.74,122.26z"/>
	</g>
</g>
<g>
	<g>
		<path d="M256,411.826c-41.55,0-80.661-16.229-110.129-45.697S100.174,297.55,100.174,256c0-9.22-7.475-16.696-16.696-16.696
			S66.783,246.78,66.783,256c0,50.469,19.702,97.966,55.477,133.74c35.774,35.776,83.271,55.477,133.74,55.477
			c9.22,0,16.696-7.475,16.696-16.696S265.22,411.826,256,411.826z"/>
	</g>
</g>
<g>
	<g>
		<path d="M256,133.565c-67.51,0-122.435,54.924-122.435,122.435c0,67.511,54.924,122.435,122.435,122.435
			S378.435,323.511,378.435,256C378.435,188.489,323.511,133.565,256,133.565z M256,345.043c-49.099,0-89.043-39.945-89.043-89.043
			s39.945-89.043,89.043-89.043s89.043,39.945,89.043,89.043S305.099,345.043,256,345.043z"/>
	</g>
</g>
<g>
	<g>
		<path d="M256,233.739c-12.277,0-22.261,9.984-22.261,22.261c0,12.277,9.984,22.261,22.261,22.261
			c12.277,0,22.261-9.984,22.261-22.261C278.261,243.723,268.277,233.739,256,233.739z"/>
	</g>
</g>
</svg>